<svg width="28" height="24" viewBox="0 0 28 24" fill="none" xmlns="http://www.w3.org/2000/svg">
  <path d="M12.3 4.2L13.2 4.8C15.8 6.5 17.4 9.4 17.4 12.5V20.2H16.1V12.5C16.1 9.8 14.8 7.3 12.6 5.9L11.6 5.3L12.3 4.2Z" fill="#9AA36A"/>
  <path d="M11.2 6.2C10.4 6.2 9.5 6.4 8.8 6.8C7.2 7.7 6.2 9.4 6.2 11.2C7 11.2 7.8 11 8.6 10.6C10.1 9.8 11.1 8 11.2 6.2Z" fill="#A7B171"/>
  <path d="M10.9 10.5C9.9 10.5 8.9 10.8 8 11.4C6.3 12.5 5.2 14.5 5 16.6C5.9 16.6 6.9 16.3 7.8 15.7C9.5 14.6 10.6 12.6 10.9 10.5Z" fill="#A7B171"/>
  <path d="M18.2 8.1C19 8.1 19.9 8.3 20.6 8.7C22.2 9.6 23.2 11.3 23.2 13.1C22.4 13.1 21.6 12.9 20.8 12.5C19.2 11.6 18.3 9.9 18.2 8.1Z" fill="#A7B171"/>
  <path d="M17.8 12.3C18.8 12.3 19.8 12.6 20.7 13.2C22.4 14.3 23.6 16.2 23.8 18.4C22.8 18.4 21.8 18.1 20.9 17.5C19.2 16.4 18.1 14.4 17.8 12.3Z" fill="#A7B171"/>
</svg>
